<?xml version="1.0" standalone="no"?>
<!DOCTYPE svg PUBLIC "-//W3C//DTD SVG 1.1//EN" "http://www.w3.org/Graphics/SVG/1.1/DTD/svg11.dtd" >
<svg xmlns="http://www.w3.org/2000/svg">
<metadata>
<json>
<![CDATA[
{
	"fontFamily": "crm-icon",
	"majorVersion": 1,
	"minorVersion": 0,
	"copyright": "Romano Preissler",
	"version": "Version 1.0",
	"fontId": "crm-icon",
	"psName": "crm-icon",
	"subFamily": "Regular",
	"fullName": "crm-icon",
	"description": "Font generated by IcoMoon."
}
]]>
</json>
</metadata>
<defs>
<font id="crm-icon" horiz-adv-x="1024">
<font-face units-per-em="1024" ascent="960" descent="-64" />
<missing-glyph horiz-adv-x="1024" />
<glyph unicode="&#x20;" horiz-adv-x="512" d="" />
<glyph unicode="&#xe600;" glyph-name="address-book" data-tags="crm-leitert-icon-set_address-book" d="M128 896v-896h768v896h-768zM192 64v768h64v-768h-64zM832 64h-512v768h512v-768zM768 672h-384v64h384v-64zM768 480h-384v64h384v-64z" />
<glyph unicode="&#xe601;" glyph-name="arrow-down" data-tags="crm-leitert-icon-set_arrow-down" d="M512 223.488l-403.776 403.776 45.248 45.248 358.528-358.528 358.528 358.528 45.248-45.248z" />
<glyph unicode="&#xe602;" glyph-name="arrow-up" data-tags="crm-leitert-icon-set_arrow-up" d="M870.528 223.488l-358.528 358.528-358.528-358.528-45.248 45.248 403.776 403.776 403.776-403.776z" />
<glyph unicode="&#xe603;" glyph-name="arrows-double-out" data-tags="crm-leitert-icon-set_arrows-double-out" d="M502.624 393.376l-233.376-233.376h114.752v-64h-224v224h64v-114.752l233.376 233.376 45.248-45.248zM640 800v-64h114.752l-233.376-233.376 45.248-45.248 233.376 233.376v-114.752h64v224h-224z" />
<glyph unicode="&#xe604;" glyph-name="arrows-four-out" data-tags="crm-leitert-icon-set_arrows-four-out" d="M502.624 393.376l-233.376-233.376h114.752v-64h-224v224h64v-114.752l233.376 233.376 45.248-45.248zM640 800v-64h114.752l-233.376-233.376 45.248-45.248 233.376 233.376v-114.752h64v224h-224zM384 736v64h-224v-224h64v114.752l233.376-233.376 45.248 45.248-233.376 233.376h114.752zM800 205.248l-233.376 233.376-45.248-45.248 233.376-233.376h-114.752v-64h224v224h-64v-114.752z" />
<glyph unicode="&#xe605;" glyph-name="bin" data-tags="crm-leitert-icon-set_bin" d="M896 704h-768v-64h70.080l57.92-608h512l57.92 608h70.080v64zM709.824 96h-395.648l-51.808 544h499.264l-51.808-544zM448 224h-64v288h64v-288zM640 224h-64v288h64v-288zM672 736h-64v32h-192v-32h-64v96h320v-96z" />
<glyph unicode="&#xe606;" glyph-name="blitz" data-tags="crm-leitert-icon-set_blitz" d="M780.8 522.688h-268.8v373.312l-268.8-522.688h268.8v-373.312z" />
<glyph unicode="&#xe607;" glyph-name="boat" data-tags="crm-leitert-icon-set_boat" d="M800 482.912v285.088h-192v128h-192v-128h-192v-285.088l-64-34.912 96-448h512l96 448-64 34.912zM480 832h64v-64h-64v64zM288 704h448v-186.176l-224 122.176-224-122.176v186.176zM307.744 64l-75.136 350.688 247.392 134.944v-485.632h-172.256zM716.256 64h-172.256v485.632l247.392-134.944-75.136-350.688z" />
<glyph unicode="&#xe608;" glyph-name="check-circle" data-tags="crm-leitert-icon-set_check-circle" d="M482.208 303.776l-151.968 113.984 38.368 51.2 104.032-78.016 172.512 201.216 48.576-41.632-211.52-246.752zM512 768c-176.448 0-320-143.552-320-320s143.552-320 320-320 320 143.552 320 320-143.552 320-320 320zM512 832c212.032 0 384-171.936 384-384 0-212.096-171.968-384-384-384-212.064 0-384 171.904-384 384 0 212.064 171.936 384 384 384v0z" />
<glyph unicode="&#xe609;" glyph-name="check-squared" data-tags="crm-leitert-icon-set_check-squared" d="M832 768v-640h-640v640h640zM896 832h-768v-768h768v768zM693.728 550.56l-48.576 41.632-172.512-201.216-104.032 78.016-38.368-51.2 151.968-113.984 211.52 246.752z" />
<glyph unicode="&#xe60a;" glyph-name="check" data-tags="crm-leitert-icon-set_check" d="M482.208 303.776l-151.968 113.984 38.368 51.2 104.032-78.016 172.512 201.216 48.576-41.632-211.52-246.752z" />
<glyph unicode="&#xe60b;" glyph-name="clock" data-tags="crm-leitert-icon-set_clock" d="M512 768c176.448 0 320-143.552 320-320s-143.552-320-320-320c-176.448 0-320 143.552-320 320s143.552 320 320 320zM512 832c-212.064 0-384-171.936-384-384 0-212.096 171.936-384 384-384 212.032 0 384 171.904 384 384 0 212.064-171.968 384-384 384v0zM544 480v160h-64v-224h256v64h-192z" />
<glyph unicode="&#xe60c;" glyph-name="coffee-cup" data-tags="crm-leitert-icon-set_coffee-cup" d="M928 736h-96v128h-640v-128h-96v-64h101.824l58.176-640h512l58.176 640h101.824v64zM750.272 544h-476.544l-11.648 128h499.84l-11.648-128zM314.432 96l-23.232 256h441.6l-23.264-256h-395.104zM256 800h512v-64h-512v64z" />
<glyph unicode="&#xe60d;" glyph-name="company" data-tags="crm-leitert-icon-set_company" d="M384 704h256v-96h-256v96zM384 384h256v96h-256v-96zM960 64v-64h-896v64h128v832h640v-832h128zM576 64v128h-128v-128h128zM768 64v768h-512v-768h128v192h256v-192h128z" />
<glyph unicode="&#xe60e;" glyph-name="cross" data-tags="crm-leitert-icon-set_cross" d="M658.624 350.624l-101.376 101.376 93.376 93.376-45.248 45.248-93.376-93.376-93.376 93.376-45.248-45.248 93.376-93.376-101.376-101.376 45.248-45.248 101.376 101.376 101.376-101.376z" />
<glyph unicode="&#xe60f;" glyph-name="folder" data-tags="crm-leitert-icon-set_folder" d="M576 640v128h-416v-640h704v512h-288zM224 704h288v-64h-288v64zM800 192h-576v384h576v-384z" />
<glyph unicode="&#xe610;" glyph-name="hamburger-menu" data-tags="crm-leitert-icon-set_hamburger-menu" d="M896 704h-768v64h768v-64zM896 192h-768v-64h768v64zM896 480h-768v-64h768v64z" />
<glyph unicode="&#xe611;" glyph-name="image" data-tags="crm-leitert-icon-set_image" d="M64 800v-704h896v704h-896zM896 160h-768v178.432c39.808 37.344 129.664 109.568 192 109.568 37.76 0 90.432-37.632 141.408-74.016 59.168-42.304 120.352-85.984 178.592-85.984 56.96 0 109.6 19.744 156 37.184 36.672 13.792 71.36 26.816 100 26.816v-192zM773.504 385.12c-43.36-16.288-88.16-33.12-133.504-33.12-37.76 0-90.432 37.632-141.408 74.016-59.168 42.272-120.352 85.984-178.592 85.984-67.136 0-142.208-49.216-192-89.024v313.024h768v-320c-40.256 0-80.224-15.008-122.496-30.88zM704 640c35.36 0 64-28.672 64-64s-28.64-64-64-64-64 28.672-64 64 28.64 64 64 64z" />
<glyph unicode="&#xe612;" glyph-name="mail" data-tags="crm-leitert-icon-set_mail" d="M64 800v-704h896v704h-896zM833.92 736l-321.92-247.616-321.92 247.616h643.84zM128 160v543.008l384-295.36 384 295.36v-543.008h-768z" />
<glyph unicode="&#xe613;" glyph-name="map-marker" data-tags="crm-leitert-icon-set_map-marker" d="M512 832c158.816 0 288-129.216 288-288 0-108.544-161.632-317.152-288-452.064-126.368 134.912-288 343.52-288 452.064 0 158.784 129.184 288 288 288zM512 896c-194.4 0-352-157.6-352-352s352-544 352-544 352 349.6 352 544-157.6 352-352 352v0zM512 640c35.296 0 64-28.704 64-64s-28.704-64-64-64-64 28.704-64 64 28.704 64 64 64zM512 704c-70.752 0-128-57.312-128-128s57.248-128 128-128 128 57.312 128 128-57.248 128-128 128v0z" />
<glyph unicode="&#xe614;" glyph-name="menu-left" data-tags="crm-leitert-icon-set_menu-left" d="M928 736h-832zM928 768h-832v-64h832v64zM928 160h-832zM928 192h-832v-64h832v64zM928 608h-416zM928 640h-416v-64h416v64zM928 288h-416zM928 320h-416v-64h416v64zM928 448h-416zM928 480h-416v-64h416v64zM416 256v384l-320-192 320-192z" />
<glyph unicode="&#xe615;" glyph-name="off" data-tags="crm-leitert-icon-set_off" d="M896 416c0-212.096-171.968-384-384-384-212.064 0-384 171.904-384 384 0 178.848 122.464 328.704 288 371.392v-66.176c-129.696-40.864-224-162.208-224-305.216 0-176.448 143.552-320 320-320s320 143.552 320 320c0 143.008-94.304 264.352-224 305.248v66.144c165.504-42.688 288-192.544 288-371.392zM544 864h-64v-224h64v224z" />
<glyph unicode="&#xe616;" glyph-name="padlock-keyhole-open" data-tags="crm-leitert-icon-set_padlock-keyhole-open" d="M352 608v57.6c0 91.744 71.776 166.4 160 166.4 86.112 0 156.064-71.296 159.36-160h64.32c-3.328 124.256-102.048 224-223.68 224-123.712 0-224-103.168-224-230.4v-57.6h-128v-608h704v608h-512zM800 64h-576v480h576v-480zM544 296.864v-104.864h-64v104.864c-19.072 11.104-32 31.488-32 55.136 0 35.328 28.672 64 64 64s64-28.672 64-64c0-23.616-12.928-44.032-32-55.136z" />
<glyph unicode="&#xe617;" glyph-name="padlock-keyhole" data-tags="crm-leitert-icon-set_padlock-keyhole" d="M736 608v57.6c0 127.232-100.288 230.4-224 230.4s-224-103.168-224-230.4v-57.6h-128v-608h704v608h-128zM352 665.6c0 91.744 71.776 166.4 160 166.4s160-74.656 160-166.4v-57.6h-320v57.6zM800 64h-576v480h576v-480zM544 296.864v-104.864h-64v104.864c-19.040 11.104-32 31.488-32 55.136 0 35.328 28.672 64 64 64s64-28.672 64-64c0-23.616-12.928-44.032-32-55.136z" />
<glyph unicode="&#xe618;" glyph-name="padlock-open" data-tags="crm-leitert-icon-set_padlock-open" d="M352 608v57.6c0 91.744 71.776 166.4 160 166.4 86.112 0 156.064-71.296 159.36-160h64.32c-3.328 124.256-102.048 224-223.68 224-123.712 0-224-103.168-224-230.4v-57.6h-128v-608h704v608h-512zM800 64h-576v480h576v-480z" />
<glyph unicode="&#xe619;" glyph-name="padlock" data-tags="crm-leitert-icon-set_padlock" d="M736 608v57.6c0 127.232-100.288 230.4-224 230.4s-224-103.168-224-230.4v-57.6h-128v-608h704v608h-128zM352 665.6c0 91.744 71.776 166.4 160 166.4s160-74.656 160-166.4v-57.6h-320v57.6zM800 64h-576v480h576v-480z" />
<glyph unicode="&#xe61a;" glyph-name="paperclip" data-tags="crm-leitert-icon-set_paperclip" d="M830.624 487.776c34.624 34.624 53.76 80.672 53.696 129.696 0 48.992-19.072 95.072-53.696 129.728-71.552 71.52-187.936 71.52-259.424 0.032l-392.64-392.704c-51.808-51.84-51.872-136.192-0.064-188 51.872-51.872 136.256-51.872 188.128 0l392.64 392.64c32.128 32.16 32.192 84.512-0.064 116.672-32.128 32.096-84.448 32.096-116.576 0h-0.064l-392.608-392.672 45.312-45.248 392.576 392.672c7.2 7.232 18.944 7.232 26.176 0 7.2-7.2 7.2-18.944 0-26.144l-392.64-392.64c-26.944-26.912-70.688-26.912-97.632 0-26.816 26.88-26.816 70.592 0.128 97.504l392.576 392.64c46.56 46.56 122.368 46.56 168.928 0 22.56-22.56 34.944-52.576 35.008-84.48 0-31.904-12.448-61.888-35.008-84.448v0l-392.64-392.64 45.248-45.248 392.64 392.64z" />
<glyph unicode="&#xe61b;" glyph-name="crm-leitert-icon-set_archiv" data-tags="crm-leitert-icon-set_archiv" d="M64 896v-224h64v-672h768v672h64v224h-896zM832 64h-640v608h640v-608zM896 736h-768v96h768v-96zM384 384h256c52.928 0 96 43.072 96 96s-43.072 96-96 96h-256c-52.928 0-96-43.072-96-96s43.072-96 96-96zM384 512h256c17.664 0 32-14.336 32-32s-14.336-32-32-32h-256c-17.664 0-32 14.336-32 32s14.336 32 32 32z" />
<glyph unicode="&#xe61c;" glyph-name="pulse" data-tags="crm-leitert-icon-set_pulse" d="M600.544 41.536l-192 640-132.768-265.536h-211.776v64h172.224l187.232 374.464 192-640 132.768 265.536h211.776v-64h-172.224z" />
<glyph unicode="&#xe61d;" glyph-name="signal" data-tags="crm-leitert-icon-set_signal" d="M576 448c0-35.36-28.64-64-64-64-35.328 0-64 28.64-64 64s28.672 64 64 64c35.36 0 64-28.64 64-64zM704 448c0-52.928-21.536-100.928-56.32-135.68l45.312-45.312c46.336 46.304 75.008 110.304 75.008 180.992s-28.672 134.688-75.008 180.992l-45.312-45.312c34.784-34.752 56.32-82.752 56.32-135.68zM331.008 267.008l45.312 45.312c-34.784 34.752-56.32 82.752-56.32 135.68s21.536 100.928 56.32 135.68l-45.312 45.312c-46.336-46.304-75.008-110.304-75.008-180.992s28.672-134.688 75.008-180.992zM828.8 764.8l-45.408-45.408c69.536-69.504 112.608-165.504 112.608-271.392s-43.072-201.888-112.608-271.392l45.408-45.408c81.056 81.056 131.2 193.056 131.2 316.8s-50.112 235.744-131.2 316.8zM128 448c0 105.888 43.072 201.888 112.608 271.392l-45.408 45.408c-81.088-81.056-131.2-193.056-131.2-316.8s50.112-235.744 131.2-316.8l45.408 45.408c-69.536 69.504-112.608 165.504-112.608 271.392z" />
<glyph unicode="&#xe61e;" glyph-name="star-full" data-tags="crm-leitert-icon-set_star-full" d="M512 856.288l102.016-310.944 327.232-0.928-264.16-193.12 100.256-311.584-265.344 191.616-265.344-191.616 100.256 311.584-264.16 193.12 327.232 0.928z" />
<glyph unicode="&#xe61f;" glyph-name="star" data-tags="crm-leitert-icon-set_star" d="M512 651.008l55.616-169.536 178.4-0.512-144.032-105.312 14.144-43.968 40.544-125.92-144.672 104.48-144.704-104.48 54.688 169.888-144 105.312 178.4 0.512 55.616 169.536zM512 856.288l-102.016-310.944-327.232-0.928 264.16-193.12-100.256-311.552 265.344 191.584 265.344-191.584-100.256 311.552 264.16 193.12-327.232 0.928-102.016 310.944z" />
<glyph unicode="&#xe620;" glyph-name="stats-full" data-tags="crm-leitert-icon-set_stats-full" d="M736 64v512h192v-512h-192zM416 64v736h192v-736h-192zM96 64v384h192v-384h-192zM576 768v-672h-128v672h128zM896 544v-448h-128v448h128zM256 416v-320h-128v320h128zM640 832h-256v-800h256v800zM960 608h-256v-576h256v576zM320 480h-256v-448h256v448z" />
<glyph unicode="&#xe621;" glyph-name="stats-line" data-tags="crm-leitert-icon-set_stats-line" d="M256 416v-320h-128v320h128zM320 480h-256v-448h256v448zM896 544v-448h-128v448h128zM960 608h-256v-576h256v576zM576 768v-672h-128v672h128zM640 832h-256v-800h256v800z" />
<glyph unicode="&#xe622;" glyph-name="target" data-tags="crm-leitert-icon-set_target" d="M576 448c0-35.36-28.64-64-64-64-35.328 0-64 28.64-64 64s28.672 64 64 64c35.36 0 64-28.64 64-64zM512 640c-105.888 0-192-86.112-192-192s86.112-192 192-192 192 86.112 192 192-86.112 192-192 192zM512 704c141.376 0 256-114.624 256-256s-114.624-256-256-256-256 114.624-256 256 114.624 256 256 256v0zM512 832c-211.744 0-384-172.256-384-384s172.256-384 384-384 384 172.256 384 384-172.256 384-384 384zM512 896c247.488 0 448-200.512 448-448s-200.512-448-448-448-448 200.512-448 448 200.512 448 448 448v0z" />
<glyph unicode="&#xe623;" glyph-name="three-points" data-tags="crm-leitert-icon-set_three-points" d="M576 448c0-35.36-28.64-64-64-64-35.328 0-64 28.64-64 64s28.672 64 64 64c35.36 0 64-28.64 64-64zM800 512c-35.36 0-64-28.64-64-64s28.64-64 64-64 64 28.64 64 64-28.64 64-64 64zM224 512c-35.328 0-64-28.64-64-64s28.672-64 64-64c35.36 0 64 28.64 64 64s-28.64 64-64 64z" />
<glyph unicode="&#xe624;" glyph-name="user-circle" data-tags="crm-leitert-icon-set_user-circle" d="M512 896c-247.424 0-448-200.576-448-448s200.576-448 448-448 448 200.576 448 448c0 247.424-200.576 448-448 448zM288.448 136.416c4.448 119.584 102.88 215.584 223.552 215.584s219.104-96 223.552-215.584c-63.008-45.376-140.128-72.416-223.552-72.416s-160.544 27.040-223.552 72.416zM384 576c0 70.592 57.408 128 128 128s128-57.408 128-128-57.408-128-128-128-128 57.408-128 128zM793.536 187.712c-21.792 102.752-98.304 185.472-197.696 215.744 63.968 31.168 108.16 96.608 108.16 172.544 0 106.016-85.984 192-192 192s-192-85.984-192-192c0-75.936 44.192-141.376 108.16-172.544-99.36-30.272-175.904-112.992-197.696-215.744-63.36 68.512-102.464 159.808-102.464 260.288 0 211.744 172.256 384 384 384s384-172.256 384-384c0-100.48-39.104-191.776-102.464-260.288z" />
<glyph unicode="&#xe625;" glyph-name="user" data-tags="crm-leitert-icon-set_user" d="M647.328 391.008c72.352 45.216 120.672 125.376 120.672 216.992 0 141.376-114.624 256-256 256s-256-114.624-256-256c0-91.616 48.32-171.776 120.672-216.992-145.216-54.784-248.672-194.656-248.672-359.008 0 0 171.936 0 384 0s384 0 384 0c0 164.352-103.456 304.224-248.672 359.008zM320 608c0 105.888 86.112 192 192 192s192-86.112 192-192-86.112-192-192-192-192 86.112-192 192zM198.432 96c29.728 145.888 159.040 256 313.568 256s283.84-110.112 313.568-256h-627.136z" />
<glyph unicode="&#xe626;" glyph-name="warning-circle" data-tags="crm-leitert-icon-set_warning-circle" d="M512 768c176.448 0 320-143.552 320-320s-143.552-320-320-320-320 143.552-320 320 143.552 320 320 320zM512 832c-212.064 0-384-171.936-384-384 0-212.096 171.936-384 384-384 212.032 0 384 171.904 384 384 0 212.064-171.968 384-384 384v0zM512 672v-288zM544 672h-64v-288h64v288zM512 320v-96zM544 320h-64v-96h64v96z" />
<glyph unicode="&#xe627;" glyph-name="warning" data-tags="crm-leitert-icon-set_warning" d="M512 736v-416zM544 736h-64v-416h64v416zM512 256v-96zM544 256h-64v-96h64v96z" />
<glyph unicode="&#xe628;" glyph-name="elevator" data-tags="crm-leitert-icon-set_elevator" d="M192 768v-768h640v768h-640zM256 64v640h224v-640h-224zM768 64h-224v640h224v-640zM704 832h-384v64h384v-64z" />
<glyph unicode="&#xe629;" glyph-name="crm-leitert-icon-set_bin-2" data-tags="crm-leitert-icon-set_bin-2" d="M896 720h-768v-64h64v-608h640v608h64v64zM768 112h-512v544h512v-544zM448 240h-64v288h64v-288zM640 240h-64v288h64v-288zM416 752h-64v96h320v-96h-64v32h-192v-32z" />
<glyph unicode="&#xe62a;" glyph-name="crm-leitert-icon-set_calendar" data-tags="crm-leitert-icon-set_calendar" d="M768 832v64h-64v-64h-384v64h-64v-64h-192v-832h896v832h-192zM896 64h-768v480h768v-480zM896 608h-768v160h128v-64h64v64h384v-64h64v64h128v-160z" />
<glyph unicode="&#xe62b;" glyph-name="crm-leitert-icon-set_credit-card" data-tags="crm-leitert-icon-set_credit-card" d="M64 768v-640h896v640h-896zM896 704v-96h-768v96h768zM128 192v256h768v-256h-768z" />
<glyph unicode="&#xe62c;" glyph-name="crm-leitert-icon-set_export" data-tags="crm-leitert-icon-set_export" d="M960 0h-896v352h64v-288h768v288h64v-352zM729.6 563.2l-217.6 290.144-217.6-290.144 51.2-38.368 134.4 179.168v-480h64v480l134.4-179.2 51.2 38.4z" />
<glyph unicode="&#xe62d;" glyph-name="crm-leitert-icon-set_flag-2-full" data-tags="crm-leitert-icon-set_flag-2-full" d="M128 0h-64v896h64v-896zM944.416 893.696l-92.288-36.896c-58.304-23.328-108.736-34.656-154.144-34.656-55.424 0-97.536 16.8-142.080 34.656-48.256 19.264-98.112 39.2-165.888 39.2-53.728 0-111.904-12.8-177.92-39.232l-20.096-8.064v-580.896l43.872 17.536c58.304 23.328 108.768 34.656 154.144 34.656 55.424 0 97.536-16.8 142.080-34.656 48.224-19.296 98.080-39.232 165.856-39.232 53.728 0 111.904 12.8 177.92 39.232l35.264 14.080-169.376 276.256 202.656 318.016z" />
<glyph unicode="&#xe62e;" glyph-name="crm-leitert-icon-set_flag-2-line" data-tags="crm-leitert-icon-set_flag-2-line" d="M128 0h-64v896h64v-896zM875.872 285.344l35.264 14.080-169.376 276.256 202.656 318.016-92.288-36.896c-58.304-23.328-108.736-34.656-154.144-34.656-55.424 0-97.536 16.8-142.080 34.656-48.256 19.264-98.112 39.2-165.888 39.2-53.728 0-111.904-12.8-177.92-39.232l-20.096-8.064v-580.896l43.872 17.536c58.304 23.328 108.768 34.656 154.144 34.656 55.424 0 97.536-16.8 142.080-34.656 48.224-19.296 98.080-39.232 165.856-39.232 53.728 0 111.936 12.832 177.92 39.232zM256 360.672v444.352c49.92 18.144 93.952 26.976 134.016 26.976 55.424 0 97.504-16.8 142.048-34.656 48.256-19.296 98.112-39.232 165.888-39.232 28.96 0 59.264 3.712 91.328 11.328l-123.040-193.12 150.048-244.672c-43.52-14.432-82.496-21.504-118.336-21.504-55.424 0-97.504 16.8-142.048 34.656-48.256 19.264-98.112 39.2-165.888 39.2-41.44 0-85.632-7.648-134.016-23.328z" />
<glyph unicode="&#xe62f;" glyph-name="crm-leitert-icon-set_flag-line-full" data-tags="crm-leitert-icon-set_flag-line-full" d="M128 0h-64v896h64v-896zM852.128 856.768c-58.304-23.328-108.736-34.656-154.144-34.656-55.424 0-97.536 16.8-142.080 34.656-48.256 19.296-98.112 39.232-165.888 39.232-53.728 0-111.904-12.8-177.92-39.232l-20.096-8.064v-580.896l43.872 17.536c58.304 23.328 108.768 34.656 154.144 34.656 55.424 0 97.536-16.8 142.080-34.656 48.224-19.296 98.080-39.232 165.856-39.232 53.728 0 111.904 12.8 177.92 39.232l20.128 8.064v580.896l-43.872-17.536z" />
<glyph unicode="&#xe630;" glyph-name="crm-leitert-icon-set_flag-line" data-tags="crm-leitert-icon-set_flag-line" d="M128 0h-64v896h64v-896zM875.872 285.344l20.128 8.064v580.896l-43.872-17.536c-58.304-23.328-108.736-34.656-154.144-34.656-55.424 0-97.536 16.8-142.080 34.656-48.256 19.296-98.112 39.232-165.888 39.232-53.728 0-111.904-12.8-177.92-39.232l-20.096-8.064v-580.896l43.872 17.536c58.304 23.328 108.768 34.656 154.144 34.656 55.424 0 97.536-16.8 142.080-34.656 48.224-19.296 98.080-39.232 165.856-39.232 53.728 0 111.936 12.832 177.92 39.232zM256 360.672v444.352c49.92 18.144 93.952 26.976 134.016 26.976 55.424 0 97.504-16.8 142.048-34.656 48.256-19.296 98.112-39.232 165.888-39.232 41.472 0 85.664 7.648 134.016 23.328v-444.352c-49.92-18.112-93.952-26.976-134.016-26.976-55.424 0-97.504 16.8-142.048 34.656-48.256 19.296-98.112 39.232-165.888 39.232-41.44 0-85.632-7.648-134.016-23.328z" />
<glyph unicode="&#xe631;" glyph-name="crm-leitert-icon-set_hammer" data-tags="crm-leitert-icon-set_hammer" d="M896 754.56l-247.488 141.44h-488.512v-352h192v-544h320v544h224v210.56zM608 64h-192v480h192v-480zM832 608h-608v224h407.488l200.512-114.56v-109.44z" />
<glyph unicode="&#xe632;" glyph-name="crm-leitert-icon-set_helper" data-tags="crm-leitert-icon-set_helper" d="M828.8 764.8c-87.488 87.488-202.112 131.2-316.768 131.2s-229.312-43.712-316.768-131.2c-175.008-175.008-174.976-458.624 0-633.568 87.456-87.488 202.112-131.232 316.768-131.232s229.312 43.744 316.768 131.232c174.976 174.944 174.944 458.592 0 633.568zM512 277.696c-45.504 0-88.288 17.728-120.448 49.888-66.368 66.4-66.368 174.464 0.032 240.864 32.16 32.16 74.944 49.888 120.448 49.888s88.256-17.728 120.416-49.888c66.4-66.4 66.4-174.464 0-240.864-32.16-32.192-74.944-49.888-120.448-49.888zM240.512 176.512c-7.584 7.584-14.656 15.616-21.536 23.712l106.464 106.464c6.368-8.48 13.184-16.672 20.864-24.384 7.648-7.648 15.872-14.464 24.352-20.896l-106.4-106.432c-8.128 6.88-16.16 13.888-23.744 21.536zM783.552 719.552c7.616-7.648 14.624-15.68 21.504-23.776l-106.464-106.464c-6.4 8.448-13.216 16.672-20.896 24.384-7.648 7.648-15.872 14.464-24.352 20.896l106.496 106.496c8.096-6.912 16.128-13.92 23.712-21.536zM730.88 531.072l111.616 111.648c70.528-119.808 70.528-269.632 0-389.44l-111.616 111.616c20.192 53.44 20.192 112.736 0 166.176zM706.848 778.592l-111.648-111.648c-26.208 9.984-54.24 15.36-83.168 15.36s-56.96-5.44-83.2-15.36l-111.616 111.648c58.432 34.56 125.088 53.408 194.816 53.408 69.696 0 136.352-18.848 194.816-53.408zM264.224 741.056l106.432-106.464c-8.448-6.432-16.672-13.248-24.32-20.896-7.68-7.68-14.496-15.936-20.896-24.384l-106.464 106.496c6.88 8.128 13.952 16.128 21.536 23.744s15.616 14.624 23.712 21.504zM181.472 642.848l111.68-111.744c-20.192-53.44-20.192-112.736 0-166.176l-111.712-111.744c-34.56 58.464-53.44 125.12-53.44 194.816s18.88 136.384 53.472 194.848zM317.216 117.44l111.584 111.616c26.24-9.952 54.272-15.36 83.2-15.36s56.96 5.44 83.232 15.36l111.616-111.616c-58.464-34.592-125.12-53.44-194.816-53.44s-136.352 18.848-194.816 53.44zM759.84 154.944l-106.464 106.464c8.448 6.432 16.672 13.248 24.32 20.896 7.68 7.68 14.496 15.936 20.896 24.384l106.432-106.432c-6.848-8.128-13.856-16.16-21.472-23.776-7.584-7.616-15.616-14.656-23.712-21.536z" />
<glyph unicode="&#xe633;" glyph-name="crm-leitert-icon-set_import" data-tags="crm-leitert-icon-set_import" d="M960 0h-896v352h64v-288h768v288h64v-352zM678.4 499.2l-134.4-179.2v480h-64v-480l-134.4 179.2-51.2-38.4 217.6-290.144 217.6 290.144-51.2 38.4z" />
<glyph unicode="&#xe634;" glyph-name="crm-leitert-icon-set_minus" data-tags="crm-leitert-icon-set_minus" d="M160 476.384h704v-56.736h-704v56.736z" />
<glyph unicode="&#xe635;" glyph-name="crm-leitert-icon-set_paper-list" data-tags="crm-leitert-icon-set_paper-list" d="M832 832v-768h-640v768h640zM896 896h-768v-896h768v896zM736 704h-448v-64h448v64zM736 480h-448v-64h448v64zM736 256h-448v-64h448v64z" />
<glyph unicode="&#xe636;" glyph-name="crm-leitert-icon-set_pencil" data-tags="crm-leitert-icon-set_pencil" d="M659.072 821.344l-452.576-452.544-67.872-294.144 294.176 67.872 452.576 452.576-226.304 226.24zM224 160.032l35.872 155.424 119.552-119.584-155.424-35.84zM432.8 233.024l-135.808 135.776 271.552 271.52 135.744-135.776-271.488-271.52zM613.824 685.6l45.248 45.248 135.808-135.744-45.312-45.28-135.744 135.776z" />
<glyph unicode="&#xe637;" glyph-name="crm-leitert-icon-set_plus" data-tags="crm-leitert-icon-set_plus" d="M864 476.384h-323.616v323.616h-56.768v-323.616h-323.616v-56.768h323.616v-323.616h56.768v323.616h323.616z" />
<glyph unicode="&#xe638;" glyph-name="crm-leitert-icon-set_search" data-tags="crm-leitert-icon-set_search" d="M950.624 54.624l-244.48 244.48c49.664 59.744 79.584 136.448 79.584 220.032 0.032 190.144-154.688 344.864-344.864 344.864s-344.864-154.72-344.864-344.864 154.72-344.864 344.864-344.864c83.584 0 160.288 29.952 220.032 79.584l244.48-244.48 45.248 45.248zM440.864 238.24c-154.848 0-280.864 126.016-280.864 280.896s126.016 280.864 280.864 280.864 280.864-126.016 280.864-280.864-125.984-280.896-280.864-280.896z" />
<glyph unicode="&#xe639;" glyph-name="crm-leitert-icon-set_stop-circle" data-tags="crm-leitert-icon-set_stop-circle" d="M512 896c-247.424 0-448-200.576-448-448s200.576-448 448-448 448 200.576 448 448-200.576 448-448 448zM128 448c0 211.744 172.256 384 384 384 94.368 0 180.768-34.368 247.68-91.072l-540.608-540.608c-56.704 66.912-91.072 153.312-91.072 247.68zM512 64c-94.368 0-180.768 34.368-247.68 91.072l540.608 540.608c56.704-66.912 91.072-153.312 91.072-247.68 0-211.744-172.256-384-384-384z" />
<glyph unicode="&#xe63a;" glyph-name="crm-leitert-icon-set_three-points-vertical" data-tags="crm-leitert-icon-set_three-points-vertical" d="M512 384c-35.36 0-64 28.64-64 64 0 35.328 28.64 64 64 64s64-28.672 64-64c0-35.36-28.64-64-64-64zM576 160c0 35.36-28.64 64-64 64s-64-28.64-64-64 28.64-64 64-64 64 28.64 64 64zM576 736c0 35.328-28.64 64-64 64s-64-28.672-64-64c0-35.36 28.64-64 64-64s64 28.64 64 64z" />
<glyph unicode="&#xe63b;" glyph-name="crm-leitert-icon-set_world" data-tags="crm-leitert-icon-set_world" d="M512 896c-247.424 0-448-200.576-448-448s200.576-448 448-448c247.424 0 448 200.576 448 448s-200.576 448-448 448zM512 64c-29.952 0-66.496 45.888-92.832 128h185.696c-26.4-82.112-62.912-128-92.864-128zM402.464 256c-9.664 46.144-16.064 99.904-17.824 160h254.752c-1.76-60.096-8.192-113.856-17.856-160h-219.072zM129.632 416h191.008c1.632-54.56 7.456-109.056 17.312-160h-157.984c-27.776 47.808-45.536 102.016-50.336 160zM512 832c29.952 0 66.464-45.888 92.832-128h-185.696c26.368 82.112 62.912 128 92.864 128zM621.536 640c9.664-46.144 16.096-99.904 17.856-160h-254.752c1.76 60.096 8.16 113.856 17.824 160h219.072zM320.64 480h-191.008c4.8 57.984 22.56 112.192 50.336 160h157.984c-9.888-50.944-15.68-105.44-17.312-160zM703.36 416h191.008c-4.8-57.984-22.56-112.192-50.304-160h-158.016c9.856 50.944 15.712 105.44 17.312 160zM703.36 480c-1.632 54.56-7.456 109.056-17.312 160h158.016c27.744-47.808 45.504-102.016 50.304-160h-191.008zM797.408 704h-126.592c-12 42.24-27.136 80.192-45.44 110.88 67.168-20.8 126.176-59.808 172.032-110.88zM398.656 814.88c-18.336-30.688-33.472-68.64-45.472-110.88h-126.592c45.856 51.072 104.896 90.080 172.064 110.88zM226.592 192h126.592c12-42.24 27.136-80.192 45.44-110.88-67.136 20.8-126.176 59.808-172.032 110.88zM625.376 81.12c18.304 30.688 33.44 68.64 45.44 110.88h126.592c-45.856-51.072-104.864-90.080-172.032-110.88z" />
</font>
</defs>
</svg>
